<svg id="e86d89cc-6df0-4d75-9056-57506a14aeaf" data-name="altafino" xmlns="http://www.w3.org/2000/svg" viewBox="0 0 197.68 39.75"><title>altafino</title><path d="M21.76,20.82l.27-.11V18.86H28v26.5H22V42.65l-.32-.1a10.76,10.76,0,0,1-8.22,3.34C6.39,45.89.72,39.79.72,32.11A13.45,13.45,0,0,1,14,18.33,11.47,11.47,0,0,1,21.76,20.82ZM22,36.88V25.54a12,12,0,0,0-7.26-2.23c-4.46,0-8.11,3.82-8.11,8.8s3.65,8.79,8.11,8.79A7.7,7.7,0,0,0,22,36.88Z" transform="translate(-0.72 -6.14)"/><path d="M45.61,45.83c-6.15,0-9.43-2.91-9.43-8.48V6.67h5.93V36.93c0,2.44,1.59,3.55,4,3.71Z" transform="translate(-0.72 -6.14)"/><path d="M48.79,18.86h4.08V10.38h5.94v8.48H66v4.77h-7.2V36c0,3.12,1.75,4.45,4.13,4.45a9.87,9.87,0,0,0,3.76-.59l1.06,4.67a12.71,12.71,0,0,1-5.46,1.11c-5.35,0-9.43-3.39-9.43-9.43V23.63H48.79Z" transform="translate(-0.72 -6.14)"/><path d="M91.67,20.82l.26-.11V18.86h5.94v26.5H91.93V42.65l-.32-.1a10.73,10.73,0,0,1-8.21,3.34c-7.1,0-12.77-6.1-12.77-13.78a13.45,13.45,0,0,1,13.3-13.78A11.47,11.47,0,0,1,91.67,20.82Zm.26,16.06V25.54a12,12,0,0,0-7.26-2.23c-4.45,0-8.11,3.82-8.11,8.8s3.66,8.79,8.11,8.79C87.64,40.9,90.39,39.79,91.93,36.88Z" transform="translate(-0.72 -6.14)"/><path d="M102.69,18.86H107V16.1c0-6,3.87-10,9.86-10a15,15,0,0,1,6,1.11l-1.06,4.51a13.16,13.16,0,0,0-4.5-.64c-2.81,0-4.35,1.75-4.35,5v2.76h6.68v4.77h-6.68V45.36H107V23.63h-4.29Z" transform="translate(-0.72 -6.14)"/><path d="M128,7.89a3.14,3.14,0,0,1,3.45,3,3.45,3.45,0,0,1-6.84,0A3.15,3.15,0,0,1,128,7.89Zm-2.91,11H131v26.5h-5.93Z" transform="translate(-0.72 -6.14)"/><path d="M139.53,18.86h5.93v3.23l.32.11a11.77,11.77,0,0,1,9.27-3.87c5.25,0,9.59,3.76,9.59,11.13v15.9h-5.93V29.67c0-4.45-2.6-6.36-5.78-6.36a8.74,8.74,0,0,0-7.47,3.6V45.36h-5.93Z" transform="translate(-0.72 -6.14)"/><path d="M184.15,18.33c8.11,0,14.25,6.09,14.25,13.78s-6.14,13.78-14.25,13.78a13.79,13.79,0,1,1,0-27.56Zm0,22.57c4.72,0,8.32-3.81,8.32-8.79s-3.6-8.8-8.32-8.8-8.27,3.87-8.27,8.8S179.49,40.9,184.15,40.9Z" transform="translate(-0.72 -6.14)"/></svg>